<svg version="1.2" xmlns="http://www.w3.org/2000/svg" viewBox="0 0 1080 1080" width="1080" height="1080">
	<title>Logo MM-ai</title>
	<style>
		.s0 { fill: #ff8fe5 } 
	</style>
	<g id="Camada 1">
		<g id="&lt;Group&gt;">
			<path id="&lt;Path&gt;" class="s0" d="m374.4 592.4c0.6-0.7 1.1-1.2 1.3-1.7 0.4-0.9 0.6-1.9 0.8-2.8 1.3-5.7 2.4-11.4 3.8-17 1.4-6.2 3.1-12.3 4.5-18.4 1.4-5.7 2.5-11.4 3.8-17.1 0.7-3.4 1.6-6.7 2.4-10.1q2.9-12.2 5.8-24.4c0.5-2.1 1-2.5 3.2-2.6 1-0.1 2 0 3 0q20.7 0 41.4 0 0.7 0 1.4 0c1.1 0 2 0.4 2 1.6 0.1 1.4-0.8 1.9-2 2.1q-0.8 0.1-1.7 0.1c-0.8 0-1.6-0.1-2.4-0.1-3.5 0.1-3.9 0.5-4 4.1 0 2 0 3.9 0 5.9q0 54.5 0 109 0 0.3 0 0.6c0 5 0.3 5.3 5.2 5.4 1.1 0 2.2 0 3.2 0.2 1.1 0.1 1.8 0.8 1.8 2 0 1.2-0.8 1.7-1.9 1.8q-1.1 0.1-2.3 0-24.9 0.1-49.9 0.1-0.8 0-1.7-0.1c-1 0-1.6-0.6-1.7-1.6 0-1.2 0.4-2.3 1.7-2.4 1.7-0.1 3.5 0 5.2-0.1 2.4-0.1 2.9-0.6 3.1-2.9q0-0.7 0-1.5 0-51.7-0.1-103.5c0-1.7-0.2-3.4-0.3-5.1q-0.3 0-0.7-0.1c-0.2 0.5-0.5 0.9-0.6 1.4-1.5 6.1-3 12.2-4.4 18.4-1.4 5.9-2.6 11.9-4 17.8-1.4 6-3 11.9-4.4 17.8-0.8 3-1.3 6.1-2 9.1q-2.1 9.2-4.3 18.4-1.9 8.5-3.9 17c-1.2 5-2.4 10-3.5 15-0.4 1.7-1.3 2.3-2.8 2.3q-4.6 0-9.1 0.1c-3.1 0-6.2 0-9.3 0-3.2-0.1-3.2-0.3-4.1-3.4-1.7-6.5-3.6-13-5.3-19.6-1.5-5.2-2.8-10.5-4.2-15.7-1.3-4.8-2.8-9.5-4.1-14.3-1.4-5.3-2.8-10.7-4.2-16-0.8-2.9-1.7-5.8-2.5-8.7-2.1-7.8-4.1-15.6-6.2-23.3-1.4-5.1-2.9-10.1-4.3-15.2-0.2-0.6-0.6-1.1-1-1.9-1.2 0.8-1 1.8-1 2.7q-0.1 5.3 0 10.5-0.1 48 0 96c0 0.6-0.1 1.1 0 1.7 0.1 2.3 0.8 2.9 3 3.1 1.3 0 2.5-0.1 3.8 0 0.7 0 1.5-0.1 2 0.3 0.5 0.5 1.1 1.4 1 2.1 0 0.6-0.8 1.2-1.4 1.5-0.6 0.3-1.4 0.2-2 0.2q-9.5 0-19 0-0.9 0-1.7-0.1c-1-0.2-1.9-0.7-1.7-1.7 0.2-0.7 0.8-1.5 1.4-2 0.5-0.3 1.3-0.3 2-0.3 0.9-0.1 1.9 0 2.9 0 3.8 0 4.4-0.6 4.4-4.4q0-47.1 0-94.2 0-10.7 0-21.3c0-0.8 0-1.6 0-2.4-0.2-1.9-0.8-2.5-2.8-2.6-1.4-0.1-2.9 0-4.4-0.1-0.7 0-1.6 0.1-2.2-0.3-0.5-0.2-1.1-0.9-1.1-1.4 0-0.6 0.4-1.4 0.9-1.6 0.7-0.4 1.7-0.5 2.5-0.5q22.2 0 44.4 0.1c3.4 0 3.7 0.5 4.5 3.9 1.3 5.3 2.9 10.5 4.3 15.7 0.8 2.8 1.4 5.7 2.1 8.5 1.4 5.4 2.9 10.8 4.3 16.3 1.4 5.6 2.7 11.3 4.1 16.9 1.3 4.8 2.6 9.6 3.9 14.4 1.4 5.5 2.8 11 4.3 16.6 0.1 0.5 0.4 1 0.8 1.8z"/>
			<path id="&lt;Path&gt;" class="s0" d="m240.2 513.8c-0.6 2.2-1.3 4.3-1.8 6.5-0.8 3.4-1.6 6.8-2.3 10.2-1.6 7.1-3.1 14.2-4.8 21.3-1.4 6-3.1 11.8-4.5 17.8-1.4 5.9-2.5 11.9-3.8 17.9-0.7 3-1.6 6-2.3 9-1.3 5.9-2.7 11.7-4 17.6q-1.7 7.2-3.5 14.4c-0.5 2.2-0.6 2.4-2.9 2.5-4.7 0.1-9.5 0-14.3 0.1-1.7 0-3.5 0-5.2-0.1-1.4 0-2.3-0.8-2.6-2.2-1.8-6.9-3.8-13.7-5.6-20.5-1.4-5.4-2.8-10.9-4.3-16.3-1.4-5.1-2.9-10.1-4.4-15.1-1.2-4.2-2.2-8.4-3.3-12.7q-1.5-5.6-3.1-11.2c-2-7.6-4-15.2-6.1-22.8-1.4-5.1-2.8-10.2-4.3-15.3-0.2-0.7-0.7-1.4-1.2-2.3-0.9 1.1-0.7 2.2-0.7 3.2-0.1 3.7-0.1 7.3-0.1 11q0 47.6 0 95.1c0 5 0.2 5.1 5.1 5.1 1.1 0 2.1 0 3.2 0.1 1.1 0.2 1.7 1 1.7 2.1 0 1.2-0.8 1.7-1.9 1.8q-0.8 0.1-1.7 0.1-9.5 0-19 0c-0.6 0-1.1 0-1.7-0.1-1-0.1-1.9-0.6-1.7-1.6 0.2-0.8 0.7-1.7 1.4-2 0.7-0.4 1.7-0.4 2.5-0.4 1.4-0.1 2.7 0 4.1-0.1 1.8-0.1 2.4-0.7 2.7-2.4 0.1-0.9 0.1-1.8 0.1-2.7q0-56.8 0-113.7c0-1 0-2 0-2.9-0.2-2.5-0.8-3-3.3-3.1-1.1-0.1-2.3 0-3.5 0-0.7-0.1-1.3-0.1-2-0.1-1.1-0.2-1.9-0.6-1.9-1.8-0.1-1.2 0.7-1.8 1.8-1.9q1-0.1 2-0.1 21.8 0 43.5 0.1 1-0.1 2 0c1.6 0.2 2.5 1 2.9 2.5 1.2 4.9 2.4 9.8 3.7 14.6 1.4 5.2 2.9 10.3 4.3 15.4 1.2 4.5 2.2 9.1 3.3 13.6 1.7 6.4 3.5 12.7 5.1 19.1 1.4 5.3 2.6 10.7 4 16.1 1 4.1 2.2 8.2 3.4 12.7 0.6-0.6 1.2-0.9 1.4-1.4 0.4-0.8 0.6-1.7 0.8-2.5 1.2-5.5 2.4-11 3.7-16.4 1.5-6.5 3.2-12.8 4.7-19.3 1.3-5.3 2.4-10.8 3.6-16.1 1.6-6.6 3.2-13 4.8-19.5 0.6-2.8 1.1-5.5 1.8-8.3 0.6-2.7 1.3-5.5 1.9-8.2 0.4-1.6 1.3-2.3 2.9-2.3q1.3 0 2.6 0 20.7 0 41.5 0 1.1 0 2.3 0.1c1 0.1 1.6 0.7 1.6 1.7 0 1-0.5 1.6-1.5 1.8-0.8 0.1-1.6 0.1-2.4 0.1-1.1 0.1-2.3 0-3.5 0.1-1.9 0.1-2.3 0.6-2.5 2.5-0.2 0.9-0.1 1.9-0.1 2.9q0 57 0 114c0 5.4 0.1 5.5 5.6 5.5 0.9 0 1.7-0.1 2.6 0.1 1.2 0.2 1.9 0.9 1.9 2.2-0.1 1.2-0.9 1.6-2 1.7-0.6 0.1-1.3 0.1-2 0.1q-24.7 0-49.3 0-1 0-2 0c-1.3-0.1-2.1-0.6-2.1-1.9 0-1.4 0.7-2.1 2.1-2.2 1.6-0.1 3.2 0 4.7-0.1 2.5-0.1 3-0.6 3.1-3.2 0.1-0.5 0.1-1.1 0.1-1.7q0-51.2-0.1-102.4c0-1.1 0.1-2.1 0-3.2-0.1-0.9-0.4-1.8-0.6-2.6q-0.3 0-0.6 0z"/>
			<path id="&lt;Compound Path&gt;" fill-rule="evenodd" class="s0" d="m924.4 619.8c-0.3 0.5-0.8 1.4-1.4 2.3-0.8 1.3-2.8 4.4-5.9 6.5-3.2 2.2-7 3.4-11.4 3.5-3.5 0.2-6.3-1.5-7-4-0.8-2.9 0.5-5.9 3.5-7.7 2.7-1.5 5.4-3.1 8.6-3.3 0.7-0.1 1.3-0.3 2-0.5 2.1-0.5 2.6-1.2 1.8-3.1-1.3-3.4-2.7-6.8-4.4-10.1-1.1-2.2-2.1-2.1-3.3 0.1-2.5 4.9-5.8 9-10.8 11.5-1.2 0.7-2.7 1.1-4.1 1.3-1.6 0.3-2.8 1-3.7 2.4-1.6 2.6-3.2 5.2-5.1 7.4-4.2 4.9-9.7 7.1-16.1 6.5-6.2-0.5-11.2-5.5-11.4-11.2-0.1-0.9-0.3-1.7-0.4-2.7-1.6 0.1-2 1.3-2.8 2.1-2.7 2.9-5.3 5.7-8 8.5-1.8 1.8-4.1 2.5-6.5 3.1-3.5 0.8-8.1-0.8-8.7-6.2-0.2-2-0.1-4.1-0.2-6.1 0-0.8-0.2-1.5-0.4-2.4-2.4 1.3-3.5 3.4-5.2 4.9-2.8 2.5-5.5 5.2-8.6 7.3-2 1.4-4.6 2.2-7 2.6-4 0.6-7.1-1.3-8.5-5.1-0.8-1.9-1.2-3.8-1.8-5.8-0.2-0.4-0.5-0.8-0.9-1.5-1.7 1.9-3.1 3.7-4.7 5.3-2 1.9-4 3.8-6.2 5.2-1.6 1.1-3.6 1.7-5.4 1.9-3.5 0.4-6.1-1.7-6.4-5.2-0.2-2.7 0-5.4 0.1-8.2q0-1.9 0-3.9-0.5-0.1-0.9-0.3c-0.7 0.8-1.5 1.6-2.2 2.5-3.4 4.7-7 9.4-12 12.6-1.8 1.1-3.8 2-5.9 2.3-6.2 0.9-9-1.7-10-8-0.2-1-0.1-2-0.2-2.9 0-0.8-0.3-1.5-0.6-2.8-1.4 1.5-2.3 2.6-3.4 3.7-2.6 2.7-5.2 5.5-8 8-2.2 1.9-5.1 2.5-8 2.2-3.4-0.3-5.8-3.2-6.3-7.3-0.1-1.4 0-2.7-0.1-4.1 0-1-0.1-1.9-0.1-3.4-1 0.7-1.6 1.1-2.1 1.6-2.8 2.8-5.5 5.7-8.5 8.4-2.8 2.6-6.1 4.5-10.1 4.8-4.4 0.3-7.3-1.3-8.9-5.4-0.6-1.4-0.8-3-1.2-4.5-0.2-0.8-0.4-1.6-0.7-3.1-1.3 1.2-2.1 2-2.8 2.8-2.6 2.5-5 5.2-7.7 7.6-2 1.8-4.6 2.8-7.5 2.6-2.4-0.1-4.1-1.2-5.3-3.4-1.7-3.2-1.6-6.6-0.8-9.9 0.8-3.8 1.7-7.6 2.5-11.4 0.8-3.3 1.6-6.6 2.3-9.9 0.5-2.9-0.2-3.9-3.1-4.5q-0.4-0.1-0.9-0.1c-3.8-0.6-4-0.4-5.2 3.1-1.7 5.3-4.1 10.2-8.1 14.3-2.5 2.7-5.6 4.2-8.9 5.2-1.9 0.6-3 1.6-3.8 3.2-2.2 4.2-5 7.9-9 10.6-5.2 3.7-10.9 4-16.6 1.5-3.4-1.5-5.5-4.5-6.3-8.2-1.1-4.9-0.9-9.8 0.4-14.5 1.8-6.4 4.7-12.3 9.7-17 4-3.6 8.6-5.8 13.9-5.9 7.5-0.3 11 3.6 12.5 10.5 1.1 4.5 0.7 9-0.8 13.5-0.2 0.4-0.4 0.9-0.4 1.4-0.1 1.6 1.1 2.4 2.7 1.6 2.6-1.4 4.9-3.2 6.7-5.5 3.1-4 4.8-8.7 6.6-13.3 0.6-1.6-0.3-2.8-1.1-4-2-3.1-1.3-7 1.5-9.2 1.5-1 3.1-1.2 4.7-0.8 1.9 0.5 3 2.3 2.5 4.3-0.5 1.7-1.3 3.2-2.2 5.1 0.3 1.2 1.7 1.3 2.9 1.4 3.4 0.3 6.8 0.4 10.2 0.7 1.4 0.1 3.1-0.5 4 1 1 1.6-0.7 2.6-1.3 3.8-0.5 1.2-1.1 2.3-1.5 3.5-2.1 6.5-4.1 13.1-4.5 20.1 0 1 0 2.1 0.1 3.2 0.3 2.5 2.2 3.4 4.5 2.3q0.5-0.2 0.9-0.6c5.2-4.5 9.9-9.5 12.2-16.1 1.6-4.1 3.4-8 6.1-11.5 4.6-6.1 10.6-10.1 18.4-11.2q4.1-0.6 8 0.8c3.1 1.2 3.4 0.9 4.2-2.1q1.8-7.7 4-15.2c1.3-4.6 2.6-9.2 4.3-13.6 2.1-6 4.4-11.8 8.5-16.8 2.3-2.8 5-4.9 8.4-6 5.3-1.8 9.4 1 9.7 6.6 0.2 4.5-0.6 8.9-2.1 13.1-2.6 7.8-6.2 15.1-10.7 22-4.6 7.2-9.4 14.4-14.6 21.4-2.2 3.1-2.9 6.5-3.8 9.9-1 3.8-1.6 7.8-2.1 11.8-0.2 1.6-0.1 3.5 0.2 5.1 0.6 2.8 2.8 3.8 5.3 2.3 1.2-0.6 2.4-1.4 3.2-2.4 3-3.5 6-7 8.5-10.7 1.6-2.3 2.4-5.1 3.5-7.7 2.9-6.5 7-11.9 13.2-15.5 5.2-2.9 10.8-4.5 16.8-2.4 1.3 0.5 2.6 1.4 3.7 2.2 1.7 1.3 1.7 1.3 3.5 0.2 1.8-1.2 3.6-2.3 5.5-3.2 0.6-0.3 1.6-0.2 2.1 0.1 0.3 0.3 0.4 1.3 0.2 1.9-0.2 0.9-0.7 1.8-1.1 2.7-3.1 6.3-5.1 13-6.6 19.8-0.8 3.3-1.8 6.6-1.6 10 0 0.7 0 1.4 0 2.1 0.1 1.2 0 2.6 1.5 3.2 1.4 0.6 2.9 0.4 4.1-0.7 5.4-4.8 10.1-10 12.4-17.2 2.8-8.3 8-15 15.7-19.1 5.1-2.8 10.8-4.1 16.6-1.7 2.4 1 3.2 0.6 4-2 0.5-1.7 0.8-3.4 1.2-5.1 1.4-5.3 2.7-10.6 4.3-15.8 1.2-3.9 2.7-7.9 4.2-11.7 1.3-3.1 2.6-6.1 4.2-9 2.6-4.6 6.1-8.5 11.4-10.2 4.9-1.6 8.7 0.5 9.5 5.5 0.3 1.4 0.3 2.9 0.1 4.4-0.6 6.6-2.7 12.8-5.8 18.7-1.9 3.8-3.8 7.7-5.9 11.4-4.5 7.8-9.5 15.3-15.1 22.4-1.9 2.5-3.3 5.1-3.8 8.1-0.8 4.7-2.8 9.1-2.8 13.9 0 1.7-0.1 3.4 0.1 5 0.4 3.2 3 4.4 5.7 2.7 1.6-1 3.1-2.4 4.4-3.8 1.4-1.4 2.5-3.2 4-4.6 2.8-2.9 3.3-6.7 4.5-10.3 2.2-6.9 5.8-13.1 12.1-17.3 3.5-2.3 7.5-3.6 11.6-3.5 5.1 0.2 9.2 2.2 10.9 8.3 1.3 4.2 1.5 8.4 0.5 12.7-0.3 1.4-0.5 2.9-0.7 4.3-0.2 2.2 0.8 3 2.8 2.2 2.5-1.1 4.8-2.7 6.4-4.9 1.9-2.7 3.7-5.5 5.4-8.3 2.1-3.6 4-7.4 6.2-10.9 1.2-1.8 2.9-3.4 4.7-4.6 1.1-0.8 2.7-1 4.1-1.2 3.4-0.3 4.7 3 3.9 5.3-0.8 2.5-2.4 4.2-5.1 4.6-0.7 0.1-1.4 0.1-2.1 0.2-2.2 0.3-2.8 1-1.8 3 0.9 2 2.1 3.8 3.2 5.6 0.7 1.1 1.5 2.2 2.3 3.4 1.9 2.9 2.5 6 2.8 7.9 0.4 2.5 0.3 4.8 0.1 6.7zm-78.6-30.8c0.8-0.7 1.5-1.1 2-1.7 2-2.9 4-5.7 5.8-8.7 3.3-5.7 6.6-11.4 9.4-17.3 2.2-4.5 3.9-9.2 5.2-13.9 0.7-2.5 0.5-5.4 0.4-8.1-0.1-2.1-1.6-3-3.7-2.3-0.8 0.2-1.6 0.7-2.1 1.3-1.2 1.4-2.4 2.9-3.3 4.5-4.3 7.6-6.2 16-8.8 24.2-1.7 5.4-3.1 10.8-4.6 16.2-0.4 1.8-1.2 3.5-0.3 5.8zm-112.4 0.2c0.7-0.6 1.2-0.8 1.5-1.2 0.9-1.1 1.6-2.2 2.4-3.4 4.7-6.8 9.1-13.9 12.6-21.5 2-4.3 3.6-8.8 5.4-13.2 1.4-3.5 1.3-7.2 1-10.9-0.2-1.8-1-2.4-2.8-2.1-1.1 0.2-2.4 0.8-3.2 1.6-1.2 1.1-2.1 2.5-2.9 4-2.8 5-4.8 10.3-6.3 15.9-1.6 6.1-3.6 12.2-5.5 18.3q-1.1 3.9-2.2 7.8c-0.4 1.4-0.8 2.8 0 4.7zm-96 12.7c-0.2-2.6-0.4-5.4-1.2-7.9-1.6-5.4-7.2-6.3-11.4-3.6-1.6 1-3 2.5-4.1 4-4.9 7.2-6.9 15.3-7.7 24.4 0.3 1.4 0.4 3.4 1 5.2 1.2 4.1 3.6 5.4 7.7 4.5 5.1-1.1 8.1-4.8 10.4-9.1 1.5-2.7 1.4-2.8-1-4.8-1.7-1.5-2.3-3.2-1.6-5.5 0.8-2.8 2.3-4.5 5.5-4.6 1.9-0.1 2.5-0.7 2.4-2.6zm84.1-6.1c0.1-5.2-4.1-8.7-8.4-7.3-3.9 1.3-7.3 3.6-9.5 7.2-4.5 7.1-7 14.9-7.6 23.3-0.2 1.9 0.1 3.9 0.6 5.7 0.5 2.1 1.9 2.9 4 2.2 1.5-0.5 3.2-1.1 4.4-2.2 2.8-2.5 5.3-5.3 8-8 6.1-5.9 7.5-13.5 8.5-20.9zm55.3-5.6c-1.9-1.8-4.5-2.9-7.2-1.8-2.6 1.1-5 2.5-6.8 4.9-3.1 3.9-5.4 8.2-6.9 13-1.4 4.3-2.9 8.6-2.8 13.3 0 1.3 0 2.7 0.1 4 0 0.5 0.1 1 0.3 1.5 0.9 2.4 2.2 2.9 4.5 1.7 1.3-0.7 2.7-1.6 3.8-2.7 7.7-7.7 13.3-16.8 17.1-27 1.1-2.8-0.2-5.1-2.1-6.9zm57.2 3.4c-0.5-3.7-5.1-6.4-8.6-5.1-4.8 1.7-8.4 4.8-10.7 9.3-1.2 2.4-2.2 4.8-3.3 7.1-2.3 4.9-2.5 10.1-3.5 15.6 0.3 1.4 0.6 3 1.1 4.5 0.6 2 2 2.7 3.9 1.9 2-0.8 4.1-1.8 5.7-3.2 2.9-2.7 5.4-5.6 8-8.5 1.5-1.8 3.2-3.6 3.9-5.7 1.5-4.4 2.4-9 3.5-13.5 0.2-0.8 0.1-1.6 0-2.4zm55.7 6.9c-0.2-2.1-0.5-4.1-1-6.1-0.7-2.5-2.2-4.2-4.8-5-3.5-1-7.2 0.3-9.8 3.5-5.8 7.5-8 16.2-8.8 25.5 0 1-0.1 2.1 0 3.2 0.5 4.5 4 8.7 9.5 6.6 1.3-0.5 2.7-1.1 3.8-1.9 2.4-1.6 4.1-3.9 5.5-6.4 1.7-3 1.8-3-0.7-5.3-2-1.8-2-4-1.3-6.4 0.6-2.2 2.1-3.3 4.3-3.7 2.7-0.4 3.6-1.4 3.3-4zm23.5 19c-2 0-4.1 0-6 0.6-2.4 0.7-4.7 1.9-5.8 4.5-0.8 1.9-0.3 3.2 1.5 4 0.8 0.3 1.7 0.4 2.1 0.5 3.9-0.1 8.9-4.2 9.7-7.6 0.2-1.3-0.3-2-1.5-2z"/>
			<path id="&lt;Compound Path&gt;" fill-rule="evenodd" class="s0" d="m572.5 543.8c-1 1.5-1.7 2.8-2.6 4-2.8 3.6-4.7 7.5-5.7 12-1.4 5.9-3.1 11.8-4.6 17.7-0.7 2.9-1.2 5.9-1.9 8.8-1.7 7.2-3.3 14.4-5.4 21.5-0.9 3.1-2.8 5.9-4.4 8.8-1.4 2.6-1.5 3.3 0.9 5.1 3.7 2.9 7.6 5.5 12.2 6.6 9.1 2.3 19-1.4 24.4-9.1 4.1-5.9 5.8-12.6 5-19.6-0.6-6-3.5-10.7-9.5-13.3-4.5-1.9-9.1-1.8-13.7-2.4-1.5-0.1-3.2 0-4.7-1.4 0.6-0.5 0.9-0.9 1.4-1.1 3.2-1 6.3-1.9 9.5-2.9 9.8-3.3 17.6-14.8 15.3-27.1-0.8-4-3.3-7-6.7-9.2-4.6-3.1-9.6-5.2-15.2-5.4-5.5-0.1-11.1-0.3-16.6 0.2-5.8 0.5-11.2 2.9-16.3 5.7-5 2.8-9.1 6.4-11.8 11.4-3 5.8-3.9 11.8-1.1 17.9 1.7 3.7 4.6 6 8.8 6.3 3.3 0.3 6.5 0.3 9.5-1.8 2.2-1.6 3.7-3.7 4.7-6.2 0.5-1.4 0.3-3-0.5-4.5-0.4-0.7-0.8-1.5-0.9-2.4-0.2-1.4 0.6-2.6 1.8-3 1.3-0.4 2.8 0.1 3.4 1.5 0.4 0.6 0.6 1.5 0.6 2.2-0.2 12.7-10.5 18.7-20 17-9.9-1.9-14.4-10-13.1-19.6 1.2-8.9 5.9-15.7 13.4-20.6 5.6-3.7 11.7-5.8 18.1-7.5 8.5-2.3 17-2.1 25.5-1.4 6.4 0.6 12.6 2.4 18.1 6 8.2 5.5 10.7 13.7 7.7 22.9-2.6 8.4-8.5 13.9-16.1 18-0.8 0.4-1.5 1-2.8 1.8 1.1 0.4 1.6 0.8 2.2 0.9 4.6 1.5 9.3 2.9 13 6.3 3.8 3.4 5.9 7.6 6 12.8 0.2 6.5-1.3 12.5-4.9 17.9-3.1 4.9-7.6 8.2-12.8 10.7-3.6 1.7-7.4 2.3-11.2 2.9-8.8 1.3-16.7-0.7-24.1-5.6-6-4.1-3.9-3.7-9.5 0.1-6.9 4.7-14.4 6.7-22.7 5.5-2.5-0.4-4.7-1.4-6.8-3.1-2.8-2.2-4.2-8.8-3.2-12.6 2.3-8.7 13.2-11.7 19.9-9.8 4.3 1.2 8.2 2.9 11.7 5.8q0.5 0.4 1.2 0.8c1.8 1.1 2.6 1 3.4-0.9 1.1-2.4 2-4.9 2.7-7.4 0.8-3 1.3-6 2-9.1 1.6-7.5 3.2-15 5-22.4 1.3-5.4 2.9-10.7 4.5-15.9 1.3-4.8 4.6-8 8.5-10.8 1.4-1.1 2.9-1.9 4.4-2.8 1.1-0.7 2.3-1 4-0.2zm-53.1 86.5c6.7-0.3 12.1-2.9 16.3-8 2.1-2.5 2-3.4-0.7-5.3-2.4-1.6-4.9-3.2-7.4-4.6-4.4-2.5-8.9-3-13.7-1.3-4 1.4-6.1 4.4-6.8 8.4-0.5 3.2 1.7 7.2 5.1 8.8 2.2 1 4.8 1.3 7.2 2z"/>
			<g id="&lt;Group&gt;">
				<g id="&lt;Group&gt;">
					<path id="&lt;Path&gt;" class="s0" d="m923 622c11.4-10.9 18.9-25.9 19.1-41.9 0.2-16.4-7.6-32.6-18.8-44.4-19.5-20.6-49.5-28.1-77-29.6-11.2-0.6-22.9-0.8-33.9 1.3-8.1 1.5-16.2 4.9-21.3 11.7-5 6.5-7.6 15.8-6.2 23.9 1.5 7.9 7.9 11.3 15.5 9.8 8.6-1.7 16-7.6 19.4-15.7 6.1-14.7 1.4-31.9-9.2-43.2-9.6-10.1-22.7-16.5-35.6-21.1-6.8-2.3-13.9-4.5-21-5.5-14.5-2.1-29.5-1.7-44.1-1.2-17.9 0.5-35.5 2-53.2 3.6-34.5 3.2-69.3 1.8-103.3-5-11.9-2.4-23.7-5.4-35.2-9.3-9.8-3.2-19.3-7.3-27.6-13.4-13.1-9.4-26-26.3-22.8-43.3 1.5-8 6.3-19.9 15.3-21.9 10.6-2.2 18.6 12 17.7 20.9-1 9.3-8.1 17.2-14.9 23.1-7.7 6.7-16.7 12.3-26.3 15.7-17.3 6.2-36.2 5.1-53.6-0.3-16.6-5.2-30.6-15.1-42.6-27.6-7.2-7.6-13.4-16.1-18.3-25.4-0.7-1.4-2.9-0.2-2.1 1.2 15.6 29.6 43.7 52.5 77.2 57.7 20.4 3.2 40.6-0.8 57.9-12.2 12.7-8.5 30.5-24.2 23.9-41.4-2.7-7.3-9.9-15.4-18.5-14.3-7.8 1-12.9 9-15.7 15.6-6.2 15-1.4 29.8 8.5 42.1 12.7 15.9 31.9 23.5 50.9 28.9 22.1 6.4 44.8 10.3 67.7 12.1 14.9 1.1 29.8 1.3 44.7 0.6 14.6-0.8 29.1-2.7 43.7-3.7 19.6-1.4 39.5-2.2 59.1-1.1 7.1 0.4 13.9 1.3 20.7 3.1 25.3 6.7 58 22 56.8 52.8-0.4 10.2-5 19.5-14.5 23.9-4.1 1.9-9.9 3.5-14 0.9-3.7-2.3-4.4-7.2-4.3-11.2 0.1-9.4 4.8-19 13.1-23.9 8-4.7 17.8-5.6 27-5.8 23.3-0.8 47.3 1.6 68.8 11.3 14.8 6.7 27.4 17 35.5 31.2 9.8 17.4 10.9 37.7 0.8 55.2-3 5.2-6.7 9.9-11.1 14-1.1 1.1 0.6 2.9 1.8 1.8z"/>
				</g>
			</g>
			<g id="wM46WI 00000145761815517634208430000000620465921162692007 ">
				<g id="&lt;Group&gt;">
					<path id="&lt;Compound Path&gt;" fill-rule="evenodd" class="s0" d="m447.8 733.3c0.2-0.2 0.4-0.5 0.5-0.8 0.2-6.4 1.4-12.6 2.6-18.8 2.2-10.9 4.4-21.8 6.7-32.7q4.1-19.3 8.3-38.7c3.6-16.2 7.3-32.5 10.9-48.8 3.2-14.8 6.4-29.6 9.7-44.4 3.9-18.2 8-36.3 11.9-54.5q4.2-19.7 7.2-39.5c1.2-7.4 2.6-14.7 4.8-21.9 0.5-1.4 1.1-2.7 1.8-4 0.8-1.7 2.7-1.9 4-0.4 0.9 1.1 1.3 2.5 1.2 3.9-0.4 3-0.6 6.1-1.2 9.1-2.3 12.3-5.1 24.4-8.4 36.4-1.3 5-2.2 10.1-3.3 15.2-2.3 10.6-4.7 21.2-7.1 31.8-3.4 15.5-6.7 31-10.1 46.6q-4.7 21.4-9.5 42.9c-4.1 18.4-8.2 36.8-12.4 55.2q-4.6 20.6-9.7 41.2c-1.6 6.3-3.5 12.5-5.4 18.7-0.4 1.6-1.4 2.9-2.1 4.4q-0.2-0.5-0.4-0.9zm60-264.6c0.1-0.4 0.2-0.7 0.3-1.1 1.3-5.9 2.6-11.8 3.8-17.7 0.9-4.2 1.6-8.4 2.4-12.7 0.2-1-0.3-1.4-1.6-1.6-1-0.2-1.2 0.4-1.3 1.1-0.2 1.2-0.4 2.5-0.7 3.7-2.2 8.4-3.6 17-4.9 25.6-0.4 2.6-0.6 2.3 2 2.7z"/>
				</g>
			</g>
			<path id="&lt;Path&gt;" class="s0" d="m344.1 354c3.7-7.8 13-9.8 18.3-6.1 4.7 3.3 6.3 11.5 1.8 17.7q-10 9.2-20 18.4-10-9-20-18.1c-4.8-6.5-3.9-14.7 0.2-18 4.6-3.9 14.8-2.5 19.7 6.1z"/>
		</g>
	</g>
</svg>